<svg width="800" height="800" viewBox="0 0 800 800" fill="none" xmlns="http://www.w3.org/2000/svg">
<path d="M400 733.333C584.095 733.333 733.333 584.095 733.333 400C733.333 215.905 584.095 66.6666 400 66.6666C215.905 66.6666 66.6666 215.905 66.6666 400C66.6666 584.095 215.905 733.333 400 733.333Z" stroke="#858585" stroke-width="50"/>
<path d="M400 533.333C473.638 533.333 533.333 473.638 533.333 400C533.333 326.362 473.638 266.667 400 266.667C326.362 266.667 266.667 326.362 266.667 400C266.667 473.638 326.362 533.333 400 533.333Z" stroke="#858585" stroke-width="50"/>
<path d="M500 300L633.333 166.667" stroke="#858585" stroke-width="50"/>
<path d="M166.667 633.333L300 500" stroke="#858585" stroke-width="50"/>
<path d="M300 300L166.667 166.667" stroke="#858585" stroke-width="50"/>
<path d="M633.333 633.333L500 500" stroke="#858585" stroke-width="50"/>
</svg>
