<svg width="668" height="468" viewBox="0 0 668 468" fill="none" xmlns="http://www.w3.org/2000/svg">
<path d="M100.667 234.007C100.667 190.467 72.8397 153.424 34 139.697V87.3333C34 68.665 34 59.3307 37.633 52.2003C40.829 45.9283 45.9283 40.829 52.2003 37.633C59.3307 34 68.665 34 87.3333 34H580.667C599.337 34 608.67 34 615.8 37.633C622.073 40.829 627.17 45.9283 630.367 52.2003C634 59.3307 634 68.665 634 87.3333V139.69C595.16 153.418 567.333 190.467 567.333 234.007C567.333 277.547 595.16 314.583 634 328.31V380.667C634 399.337 634 408.67 630.367 415.8C627.17 422.073 622.073 427.17 615.8 430.367C608.67 434 599.337 434 580.667 434H87.3333C68.665 434 59.3307 434 52.2003 430.367C45.9283 427.17 40.829 422.073 37.633 415.8C34 408.67 34 399.337 34 380.667V328.317C72.8397 314.59 100.667 277.547 100.667 234.007Z" stroke="#838383" stroke-width="66.6667" stroke-linecap="round" stroke-linejoin="round"/>
</svg>
